# xmcd
#
# Track frame offsets:
#	150
#	14136
#	27727
#	43834
#	60544
#	73912
#	88111
#	109785
#	121168
#	137674
#	155565
#	175818
#	192485
#	211166
#	229212
#	242575
#	255522
#	273662
#	289870
#	313263
#
# Disc length: 4377 seconds
#
# Revision: 0
# Processed by: cddbd v1.5.2PL0 Copyright (c) Steve Scherf et al.
# Submitted via: EZCDAudioConverter 3.0.3.2
#
DISCID=35111714
DTITLE=Paco Ibáñez - En el Olympia
DYEAR=1996
DGENRE=
TTITLE0=Dejame en paz, amor tirano
TTITLE1=Es amarga la verdad
TTITLE2=Lo que puede el dinero
TTITLE3=Nocturno
TTITLE4=Soldadito boliviano
TTITLE5=A galopar
TTITLE6=Canción de Jinete
TTITLE7=Coplas por la muerte de su padre
TTITLE8=Y riase la gente
TTITLE9=Como tu
TTITLE10=España en marcha
TTITLE11=Balada del que nunca fue a Granada
TTITLE12=Proverbios y cantares
TTITLE13=Palabras para \nPalabras para Julia
TTITLE14=La mala reputación
TTITLE15=Me llamarán
TTITLE16=Me queda la palabra
TTITLE17=Villancico
TTITLE18=Me lo decía mi abuelito
TTITLE19=Un español habla de su tierra
EXTD=
EXTT0=
EXTT1=
EXTT2=
EXTT3=
EXTT4=
EXTT5=
EXTT6=
EXTT7=
EXTT8=
EXTT9=
EXTT10=
EXTT11=
EXTT12=
EXTT13=
EXTT14=
EXTT15=
EXTT16=
EXTT17=
EXTT18=
EXTT19=
PLAYORDER=
